<?xml version="1.0" encoding="UTF-8"?>
<svg width="32px" height="32px" viewBox="0 0 32 32" version="1.1" xmlns="http://www.w3.org/2000/svg" xmlns:xlink="http://www.w3.org/1999/xlink">
    <!-- Generator: Sketch 55.2 (78181) - https://sketchapp.com -->
    <title>Group 23 Copy</title>
    <desc>Created with Sketch.</desc>
    <defs>
        <polygon id="path-1" points="0 0 32 0 32 32 0 32"></polygon>
    </defs>
    <g id="Page-1" stroke="none" stroke-width="1" fill="none" fill-rule="evenodd">
        <g id="Group-23-Copy">
            <mask id="mask-2" fill="white">
                <use xlink:href="#path-1"></use>
            </mask>
            <g id="Clip-22"></g>
            <path d="M30.7027027,14.7027027 L19.1316757,14.7027027 L28.1608649,5.67437838 C28.6668108,5.16756757 28.6668108,4.34594595 28.1608649,3.83913514 C27.6540541,3.33318919 26.8324324,3.33318919 26.3256216,3.83913514 L17.2972973,12.8683243 L17.2972973,1.2972973 C17.2972973,0.581189189 16.7161081,0 16,0 C15.283027,0 14.7027027,0.581189189 14.7027027,1.2972973 L14.7027027,12.8683243 L5.67437838,3.83913514 C5.16756757,3.33318919 4.34594595,3.33318919 3.83913514,3.83913514 C3.33318919,4.34594595 3.33318919,5.16756757 3.83913514,5.67437838 L12.8683243,14.7027027 L1.2972973,14.7027027 C0.580324324,14.7027027 0,15.2838919 0,16 C0,16.7161081 0.580324324,17.2972973 1.2972973,17.2972973 L12.8683243,17.2972973 L3.83913514,26.3256216 C3.33318919,26.8324324 3.33318919,27.6540541 3.83913514,28.1608649 C4.09254054,28.4142703 4.42464865,28.5405405 4.75675676,28.5405405 C5.08886486,28.5405405 5.42097297,28.4142703 5.67437838,28.1608649 L14.7027027,19.1316757 L14.7027027,30.7027027 C14.7027027,31.4188108 15.283027,32 16,32 C16.7161081,32 17.2972973,31.4188108 17.2972973,30.7027027 L17.2972973,19.1316757 L26.3256216,28.1608649 C26.579027,28.4142703 26.9111351,28.5405405 27.2432432,28.5405405 C27.5753514,28.5405405 27.9074595,28.4142703 28.1608649,28.1608649 C28.6668108,27.6540541 28.6668108,26.8324324 28.1608649,26.3256216 L19.1316757,17.2972973 L30.7027027,17.2972973 C31.4188108,17.2972973 32,16.7161081 32,16 C32,15.2838919 31.4188108,14.7027027 30.7027027,14.7027027" id="Fill-21" fill="#5090D6" mask="url(#mask-2)"></path>
        </g>
    </g>
</svg>