<?xml version="1.0" encoding="UTF-8"?>
<svg width="80px" height="80px" viewBox="0 0 80 80" version="1.1" xmlns="http://www.w3.org/2000/svg" xmlns:xlink="http://www.w3.org/1999/xlink">
    <!-- Generator: Sketch 55.2 (78181) - https://sketchapp.com -->
    <title>icon6</title>
    <desc>Created with Sketch.</desc>
    <defs>
        <linearGradient x1="50%" y1="0%" x2="50%" y2="100%" id="linearGradient-1">
            <stop stop-color="#5090D6" offset="0%"></stop>
            <stop stop-color="#88C3ED" offset="100%"></stop>
        </linearGradient>
    </defs>
    <g id="Page-1" stroke="none" stroke-width="1" fill="none" fill-rule="evenodd">
        <g id="icon6" fill="url(#linearGradient-1)">
            <path d="M26.4142136,21 L36,21 C36.5522847,21 37,21.4477153 37,22 C37,22.5522847 36.5522847,23 36,23 L26.4142136,23 L33.1923882,29.7781746 C33.5829124,30.1686989 33.5829124,30.8018639 33.1923882,31.1923882 C32.8018639,31.5829124 32.1686989,31.5829124 31.7781746,31.1923882 L25,24.4142136 L25,34 C25,34.5522847 24.5522847,35 24,35 C23.4477153,35 23,34.5522847 23,34 L23,24.4142136 L16.2218254,31.1923882 C15.8313011,31.5829124 15.1981361,31.5829124 14.8076118,31.1923882 C14.4170876,30.8018639 14.4170876,30.1686989 14.8076118,29.7781746 L21.5857864,23 L12,23 C11.4477153,23 11,22.5522847 11,22 C11,21.4477153 11.4477153,21 12,21 L21.5857864,21 L14.8076118,14.2218254 C14.4170876,13.8313011 14.4170876,13.1981361 14.8076118,12.8076118 C15.1981361,12.4170876 15.8313011,12.4170876 16.2218254,12.8076118 L23,19.5857864 L23,10 C23,9.44771525 23.4477153,9 24,9 C24.5522847,9 25,9.44771525 25,10 L25,19.5857864 L31.7781746,12.8076118 C32.1686989,12.4170876 32.8018639,12.4170876 33.1923882,12.8076118 C33.5829124,13.1981361 33.5829124,13.8313011 33.1923882,14.2218254 L26.4142136,21 Z M50.8076118,29.1923882 C50.4170876,28.8018639 50.4170876,28.1686989 50.8076118,27.7781746 L67.7781746,10.8076118 C68.1686989,10.4170876 68.8018639,10.4170876 69.1923882,10.8076118 C69.5829124,11.1981361 69.5829124,11.8313011 69.1923882,12.2218254 L52.2218254,29.1923882 C51.8313011,29.5829124 51.1981361,29.5829124 50.8076118,29.1923882 Z M11.8076118,68.1923882 C11.4170876,67.8018639 11.4170876,67.1686989 11.8076118,66.7781746 L28.7781746,49.8076118 C29.1686989,49.4170876 29.8018639,49.4170876 30.1923882,49.8076118 C30.5829124,50.1981361 30.5829124,50.8313011 30.1923882,51.2218254 L13.2218254,68.1923882 C12.8313011,68.5829124 12.1981361,68.5829124 11.8076118,68.1923882 Z M38.4852814,39.5 C38.4852814,38.6715729 39.1568542,38 39.9852814,38 C40.8137085,38 41.4852814,38.6715729 41.4852814,39.5 C41.4852814,40.3284271 40.8137085,41 39.9852814,41 C39.1568542,41 38.4852814,40.3284271 38.4852814,39.5 Z M57.0023257,65.0687421 C57.0007836,65.0460278 57,65.0231054 57,65 L57,59.4142136 L50.2218254,66.1923882 C49.8313011,66.5829124 49.1981361,66.5829124 48.8076118,66.1923882 C48.4170876,65.8018639 48.4170876,65.1686989 48.8076118,64.7781746 L55.5857864,58 L50,58 C49.9768946,58 49.9539722,57.9992164 49.9312579,57.9976743 L46.6862915,61.2426407 C46.2957672,61.633165 45.6626022,61.633165 45.2720779,61.2426407 C44.8815536,60.8521164 44.8815536,60.2189514 45.2720779,59.8284271 L48.1005051,57 L45.2720779,54.1715729 C44.8815536,53.7810486 44.8815536,53.1478836 45.2720779,52.7573593 C45.6626022,52.366835 46.2957672,52.366835 46.6862915,52.7573593 L49.9312579,56.0023257 C49.9539722,56.0007836 49.9768946,56 50,56 L55.5857864,56 L48.8076118,49.2218254 C48.4170876,48.8313011 48.4170876,48.1981361 48.8076118,47.8076118 C49.1981361,47.4170876 49.8313011,47.4170876 50.2218254,47.8076118 L57,54.5857864 L57,49 C57,48.9768946 57.0007836,48.9539722 57.0023257,48.9312579 L53.7573593,45.6862915 C53.366835,45.2957672 53.366835,44.6626022 53.7573593,44.2720779 C54.1478836,43.8815536 54.7810486,43.8815536 55.1715729,44.2720779 L58,47.1005051 L60.8284271,44.2720779 C61.2189514,43.8815536 61.8521164,43.8815536 62.2426407,44.2720779 C62.633165,44.6626022 62.633165,45.2957672 62.2426407,45.6862915 L58.9976743,48.9312579 C58.9992164,48.9539722 59,48.9768946 59,49 L59,54.5857864 L65.7781746,47.8076118 C66.1686989,47.4170876 66.8018639,47.4170876 67.1923882,47.8076118 C67.5829124,48.1981361 67.5829124,48.8313011 67.1923882,49.2218254 L60.4142136,56 L66,56 C66.0231054,56 66.0460278,56.0007836 66.0687421,56.0023257 L69.3137085,52.7573593 C69.7042328,52.366835 70.3373978,52.366835 70.7279221,52.7573593 C71.1184464,53.1478836 71.1184464,53.7810486 70.7279221,54.1715729 L67.8994949,57 L70.7279221,59.8284271 C71.1184464,60.2189514 71.1184464,60.8521164 70.7279221,61.2426407 C70.3373978,61.633165 69.7042328,61.633165 69.3137085,61.2426407 L66.0687421,57.9976743 C66.0460278,57.9992164 66.0231054,58 66,58 L60.4142136,58 L67.1923882,64.7781746 C67.5829124,65.1686989 67.5829124,65.8018639 67.1923882,66.1923882 C66.8018639,66.5829124 66.1686989,66.5829124 65.7781746,66.1923882 L59,59.4142136 L59,65 C59,65.0231054 58.9992164,65.0460278 58.9976743,65.0687421 L62.2426407,68.3137085 C62.633165,68.7042328 62.633165,69.3373978 62.2426407,69.7279221 C61.8521164,70.1184464 61.2189514,70.1184464 60.8284271,69.7279221 L58,66.8994949 L55.1715729,69.7279221 C54.7810486,70.1184464 54.1478836,70.1184464 53.7573593,69.7279221 C53.366835,69.3373978 53.366835,68.7042328 53.7573593,68.3137085 L57.0023257,65.0687421 Z" id="Combined-Shape"></path>
        </g>
    </g>
</svg>