<?xml version="1.0" encoding="UTF-8"?>
<svg width="80px" height="80px" viewBox="0 0 80 80" version="1.1" xmlns="http://www.w3.org/2000/svg" xmlns:xlink="http://www.w3.org/1999/xlink">
    <!-- Generator: Sketch 55.2 (78181) - https://sketchapp.com -->
    <title>icon3</title>
    <desc>Created with Sketch.</desc>
    <defs>
        <linearGradient x1="50%" y1="0%" x2="50%" y2="100%" id="linearGradient-1">
            <stop stop-color="#5090D6" offset="0%"></stop>
            <stop stop-color="#88C3ED" offset="100%"></stop>
        </linearGradient>
    </defs>
    <g id="Page-1" stroke="none" stroke-width="1" fill="none" fill-rule="evenodd">
        <g id="icon3" fill="url(#linearGradient-1)">
            <path d="M68,57.8076118 L66,59.8076118 L66,10.0734863 L66,4 L14,4 L14,76 L66,76 L66,65.4644661 L68,63.4644661 L68,78 L12,78 L12,2 L68,2 L68,8.95947266 L68,57.8076118 Z M39,17.5857864 L39,12 C39,11.4477153 39.4477153,11 40,11 C40.5522847,11 41,11.4477153 41,12 L41,17.5857864 L44.9497475,13.636039 C45.3402718,13.2455147 45.9734367,13.2455147 46.363961,13.636039 C46.7544853,14.0265633 46.7544853,14.6597282 46.363961,15.0502525 L42.4142136,19 L48,19 C48.5522847,19 49,19.4477153 49,20 C49,20.5522847 48.5522847,21 48,21 L42.4142136,21 L46.363961,24.9497475 C46.7544853,25.3402718 46.7544853,25.9734367 46.363961,26.363961 C45.9734367,26.7544853 45.3402718,26.7544853 44.9497475,26.363961 L41,22.4142136 L41,28 C41,28.5522847 40.5522847,29 40,29 C39.4477153,29 39,28.5522847 39,28 L39,22.4142136 L35.0502525,26.363961 C34.6597282,26.7544853 34.0265633,26.7544853 33.636039,26.363961 C33.2455147,25.9734367 33.2455147,25.3402718 33.636039,24.9497475 L37.5857864,21 L32,21 C31.4477153,21 31,20.5522847 31,20 C31,19.4477153 31.4477153,19 32,19 L37.5857864,19 L33.636039,15.0502525 C33.2455147,14.6597282 33.2455147,14.0265633 33.636039,13.636039 C34.0265633,13.2455147 34.6597282,13.2455147 35.0502525,13.636039 L39,17.5857864 Z M20,35 L60,35 L60,44 L20,44 L20,35 Z M22,37 L22,42 L58,42 L58,37 L22,37 Z M20,47 L60,47 L60,56 L20,56 L20,47 Z M22,49 L22,54 L58,54 L58,49 L22,49 Z M20,59 L38,59 L38,68 L20,68 L20,59 Z M22,61 L22,66 L36,66 L36,61 L22,61 Z M58.732233,68.4246212 L68.631728,58.5251263 C69.0222523,58.134602 69.6554173,58.134602 70.0459415,58.5251263 C70.4364658,58.9156506 70.4364658,59.5488155 70.0459415,59.9393398 L59.4393398,70.5459415 C59.2440777,70.7412037 58.9881554,70.8388348 58.732233,70.8388348 C58.4763107,70.8388348 58.2203884,70.7412037 58.0251263,70.5459415 L52.368272,64.8890873 C51.9777477,64.498563 51.9777477,63.865398 52.368272,63.4748737 C52.7587963,63.0843494 53.3919613,63.0843494 53.7824856,63.4748737 L58.732233,68.4246212 Z" id="Combined-Shape"></path>
        </g>
    </g>
</svg>