<?xml version="1.0" encoding="UTF-8"?>
<svg width="80px" height="80px" viewBox="0 0 80 80" version="1.1" xmlns="http://www.w3.org/2000/svg" xmlns:xlink="http://www.w3.org/1999/xlink">
    <!-- Generator: Sketch 55.2 (78181) - https://sketchapp.com -->
    <title>icon1</title>
    <desc>Created with Sketch.</desc>
    <defs>
        <linearGradient x1="50%" y1="0%" x2="50%" y2="100%" id="linearGradient-1">
            <stop stop-color="#5090D6" offset="0%"></stop>
            <stop stop-color="#88C3ED" offset="100%"></stop>
        </linearGradient>
    </defs>
    <g id="Page-1" stroke="none" stroke-width="1" fill="none" fill-rule="evenodd">
        <g id="icon1" fill="url(#linearGradient-1)">
            <path d="M0,13 L80,13 L80,67 L0,67 L0,13 Z M2,15 L2,65 L78,65 L78,15 L2,15 Z M2,21 L78,21 L78,23 L2,23 L2,21 Z M5,19 C4.44771525,19 4,18.5522847 4,18 C4,17.4477153 4.44771525,17 5,17 C5.55228475,17 6,17.4477153 6,18 C6,18.5522847 5.55228475,19 5,19 Z M13,19 C12.4477153,19 12,18.5522847 12,18 C12,17.4477153 12.4477153,17 13,17 C13.5522847,17 14,17.4477153 14,18 C14,18.5522847 13.5522847,19 13,19 Z M9,19 C8.44771525,19 8,18.5522847 8,18 C8,17.4477153 8.44771525,17 9,17 C9.55228475,17 10,17.4477153 10,18 C10,18.5522847 9.55228475,19 9,19 Z M39,35.5857864 L39,30 C39,29.4477153 39.4477153,29 40,29 C40.5522847,29 41,29.4477153 41,30 L41,35.5857864 L44.9497475,31.636039 C45.3402718,31.2455147 45.9734367,31.2455147 46.363961,31.636039 C46.7544853,32.0265633 46.7544853,32.6597282 46.363961,33.0502525 L42.4142136,37 L48,37 C48.5522847,37 49,37.4477153 49,38 C49,38.5522847 48.5522847,39 48,39 L42.4142136,39 L46.363961,42.9497475 C46.7544853,43.3402718 46.7544853,43.9734367 46.363961,44.363961 C45.9734367,44.7544853 45.3402718,44.7544853 44.9497475,44.363961 L41,40.4142136 L41,46 C41,46.5522847 40.5522847,47 40,47 C39.4477153,47 39,46.5522847 39,46 L39,40.4142136 L35.0502525,44.363961 C34.6597282,44.7544853 34.0265633,44.7544853 33.636039,44.363961 C33.2455147,43.9734367 33.2455147,43.3402718 33.636039,42.9497475 L37.5857864,39 L32,39 C31.4477153,39 31,38.5522847 31,38 C31,37.4477153 31.4477153,37 32,37 L37.5857864,37 L33.636039,33.0502525 C33.2455147,32.6597282 33.2455147,32.0265633 33.636039,31.636039 C34.0265633,31.2455147 34.6597282,31.2455147 35.0502525,31.636039 L39,35.5857864 Z M19,51 L63,51 C63.5522847,51 64,51.4477153 64,52 C64,52.5522847 63.5522847,53 63,53 L19,53 C18.4477153,53 18,52.5522847 18,52 C18,51.4477153 18.4477153,51 19,51 Z M19,57 L63,57 C63.5522847,57 64,57.4477153 64,58 C64,58.5522847 63.5522847,59 63,59 L19,59 C18.4477153,59 18,58.5522847 18,58 C18,57.4477153 18.4477153,57 19,57 Z" id="Combined-Shape"></path>
        </g>
    </g>
</svg>