<?xml version="1.0" encoding="UTF-8"?>
<svg width="80px" height="80px" viewBox="0 0 80 80" version="1.1" xmlns="http://www.w3.org/2000/svg" xmlns:xlink="http://www.w3.org/1999/xlink">
    <!-- Generator: Sketch 55.2 (78181) - https://sketchapp.com -->
    <title>icon5</title>
    <desc>Created with Sketch.</desc>
    <defs>
        <linearGradient x1="50%" y1="0%" x2="50%" y2="100%" id="linearGradient-1">
            <stop stop-color="#5090D6" offset="0%"></stop>
            <stop stop-color="#88C3ED" offset="100%"></stop>
        </linearGradient>
    </defs>
    <g id="Page-1" stroke="none" stroke-width="1" fill="none" fill-rule="evenodd">
        <g id="icon5" fill="url(#linearGradient-1)">
            <path d="M33.5771296,47 L-2.84217094e-14,47 L-2.84217094e-14,12 L80,12 L80,47 L76,47 L76,66 C76,68.2516496 75.255821,70.3294868 74,72.0009749 L74,66 L74,43 C74,41.3431458 72.6568542,40 71,40 C69.3431458,40 68,41.3431458 68,43 C68,44.3333333 66,44.3333333 66,43 L66,42 C66,40.3431458 64.6568542,39 63,39 C61.3431458,39 60,40.3431458 60,42 C60,43.3333333 58,43.3333333 58,42 L58,41 C58,39.3431458 56.6568542,38 55,38 C53.3431458,38 52,39.3431458 52,41 C52,42.3333333 50,42.3333333 50,41 L50,23 C50,21.3431458 48.6568542,20 47,20 C45.3431458,20 44,21.3431458 44,23 L44,45.6486091 L44,53 C44,53.5522847 43.5522847,54 43,54 C42.4477153,54 42,53.5522847 42,53 L42,46.4915985 L40.0989691,41.786382 C39.4783006,40.2501735 37.7298063,39.5079817 36.1935978,40.1286503 C34.6573893,40.7493188 33.9151975,42.4978131 34.535866,44.0340216 L43.9010309,67.213618 C43.9622018,67.3650214 44.0346194,67.5096827 44.11763,67.6469233 C44.1698184,67.7332058 44.2086561,67.8268856 44.2328256,67.9247842 C44.9307257,70.7516371 47.1052853,72.9360068 49.8359375,73.7027842 L49.8359375,75.7642146 C46.2180437,74.9639505 43.2857885,72.1969523 42.3275002,68.5469747 C42.2219272,68.3594171 42.1281141,68.1644294 42.0466631,67.9628311 L33.5771296,47 Z M76,45 L78,45 L78,14 L24.1415979,14 L2,37.6069004 L2,45 L32.7690771,45 L32.6814983,44.7832348 C31.6470508,42.2228873 32.8840371,39.3087301 35.4443846,38.2742825 C38.0047321,37.239835 40.9188893,38.4768213 41.9533369,41.0371689 L42,41.1526642 L42,23 C42,20.2385763 44.2385763,18 47,18 C49.7614237,18 52,20.2385763 52,23 L52,36.9996338 C52.8356605,36.3719448 53.8743941,36 55,36 C56.8770452,36 58.5125118,37.0343207 59.3675427,38.564105 C60.278934,37.6009075 61.5692923,37 63,37 C64.8770452,37 66.5125118,38.0343207 67.3675427,39.564105 C68.278934,38.6009075 69.5692923,38 71,38 C73.7614237,38 76,40.2385763 76,43 L76,45 Z M13.9539207,14 L2,14 L2,26.7429827 L13.9539207,14 Z M27,27.5857864 L27,22 C27,21.4477153 27.4477153,21 28,21 C28.5522847,21 29,21.4477153 29,22 L29,27.5857864 L32.9497475,23.636039 C33.3402718,23.2455147 33.9734367,23.2455147 34.363961,23.636039 C34.7544853,24.0265633 34.7544853,24.6597282 34.363961,25.0502525 L30.4142136,29 L36,29 C36.5522847,29 37,29.4477153 37,30 C37,30.5522847 36.5522847,31 36,31 L30.4142136,31 L34.363961,34.9497475 C34.7544853,35.3402718 34.7544853,35.9734367 34.363961,36.363961 C33.9734367,36.7544853 33.3402718,36.7544853 32.9497475,36.363961 L29,32.4142136 L29,38 C29,38.5522847 28.5522847,39 28,39 C27.4477153,39 27,38.5522847 27,38 L27,32.4142136 L23.0502525,36.363961 C22.6597282,36.7544853 22.0265633,36.7544853 21.636039,36.363961 C21.2455147,35.9734367 21.2455147,35.3402718 21.636039,34.9497475 L25.5857864,31 L20,31 C19.4477153,31 19,30.5522847 19,30 C19,29.4477153 19.4477153,29 20,29 L25.5857864,29 L21.636039,25.0502525 C21.2455147,24.6597282 21.2455147,24.0265633 21.636039,23.636039 C22.0265633,23.2455147 22.6597282,23.2455147 23.0502525,23.636039 L27,27.5857864 Z" id="Combined-Shape"></path>
        </g>
    </g>
</svg>