<?xml version="1.0" encoding="UTF-8"?>
<svg width="80px" height="80px" viewBox="0 0 80 80" version="1.1" xmlns="http://www.w3.org/2000/svg" xmlns:xlink="http://www.w3.org/1999/xlink">
    <!-- Generator: Sketch 55.2 (78181) - https://sketchapp.com -->
    <title>icon4</title>
    <desc>Created with Sketch.</desc>
    <defs>
        <linearGradient x1="50%" y1="0%" x2="50%" y2="100%" id="linearGradient-1">
            <stop stop-color="#5090D6" offset="0%"></stop>
            <stop stop-color="#88C3ED" offset="100%"></stop>
        </linearGradient>
    </defs>
    <g id="Page-1" stroke="none" stroke-width="1" fill="none" fill-rule="evenodd">
        <g id="icon4" fill="url(#linearGradient-1)">
            <path d="M65.9150212,10 L59,4.02016226 L59,10 L65.9150212,10 Z M66,12 L58,12 L57,12 L57,4 L14,4 L14,76 L66,76 L66,12 Z M12,2 L60.0336914,2 L68,8.95947266 L68,78 L12,78 L12,2 Z M32,59 L48,59 C48.5522847,59 49,59.4477153 49,60 C49,60.5522847 48.5522847,61 48,61 L32,61 C31.4477153,61 31,60.5522847 31,60 C31,59.4477153 31.4477153,59 32,59 Z M28,64 L52,64 C52.5522847,64 53,64.4477153 53,65 C53,65.5522847 52.5522847,66 52,66 L28,66 C27.4477153,66 27,65.5522847 27,65 C27,64.4477153 27.4477153,64 28,64 Z M39,32.5857864 L39,27 C39,26.4477153 39.4477153,26 40,26 C40.5522847,26 41,26.4477153 41,27 L41,32.5857864 L44.9497475,28.636039 C45.3402718,28.2455147 45.9734367,28.2455147 46.363961,28.636039 C46.7544853,29.0265633 46.7544853,29.6597282 46.363961,30.0502525 L42.4142136,34 L48,34 C48.5522847,34 49,34.4477153 49,35 C49,35.5522847 48.5522847,36 48,36 L42.4142136,36 L46.363961,39.9497475 C46.7544853,40.3402718 46.7544853,40.9734367 46.363961,41.363961 C45.9734367,41.7544853 45.3402718,41.7544853 44.9497475,41.363961 L41,37.4142136 L41,43 C41,43.5522847 40.5522847,44 40,44 C39.4477153,44 39,43.5522847 39,43 L39,37.4142136 L35.0502525,41.363961 C34.6597282,41.7544853 34.0265633,41.7544853 33.636039,41.363961 C33.2455147,40.9734367 33.2455147,40.3402718 33.636039,39.9497475 L37.5857864,36 L32,36 C31.4477153,36 31,35.5522847 31,35 C31,34.4477153 31.4477153,34 32,34 L37.5857864,34 L33.636039,30.0502525 C33.2455147,29.6597282 33.2455147,29.0265633 33.636039,28.636039 C34.0265633,28.2455147 34.6597282,28.2455147 35.0502525,28.636039 L39,32.5857864 Z M40,53 C30.0588745,53 22,44.9411255 22,35 C22,25.0588745 30.0588745,17 40,17 C49.9411255,17 58,25.0588745 58,35 C58,44.9411255 49.9411255,53 40,53 Z M40,51 C48.836556,51 56,43.836556 56,35 C56,26.163444 48.836556,19 40,19 C31.163444,19 24,26.163444 24,35 C24,43.836556 31.163444,51 40,51 Z" id="Combined-Shape"></path>
        </g>
    </g>
</svg>