<?xml version="1.0" encoding="UTF-8"?>
<svg width="12px" height="12px" viewBox="0 0 12 12" version="1.1" xmlns="http://www.w3.org/2000/svg" xmlns:xlink="http://www.w3.org/1999/xlink">
    <!-- Generator: Sketch 55.2 (78181) - https://sketchapp.com -->
    <title>Group 23 Copy</title>
    <desc>Created with Sketch.</desc>
    <defs>
        <polygon id="path-1" points="0 0 12 0 12 11.1428571 0 11.1428571"></polygon>
    </defs>
    <g id="Page-1" stroke="none" stroke-width="1" fill="none" fill-rule="evenodd">
        <g id="Group-23-Copy">
            <mask id="mask-2" fill="white">
                <use xlink:href="#path-1"></use>
            </mask>
            <g id="Clip-22"></g>
            <path d="M11.5135135,5.11969112 L7.17437838,5.11969112 L10.5603243,1.97589961 C10.7500541,1.79942085 10.7500541,1.51332046 10.5603243,1.3368417 C10.3702703,1.16066409 10.0621622,1.16066409 9.87210811,1.3368417 L6.48648649,4.48093436 L6.48648649,0.451737452 C6.48648649,0.202378378 6.26854054,0 6,0 C5.73113514,0 5.51351351,0.202378378 5.51351351,0.451737452 L5.51351351,4.48093436 L2.12789189,1.3368417 C1.93783784,1.16066409 1.62972973,1.16066409 1.43967568,1.3368417 C1.24994595,1.51332046 1.24994595,1.79942085 1.43967568,1.97589961 L4.82562162,5.11969112 L0.486486486,5.11969112 C0.217621622,5.11969112 0,5.3220695 0,5.57142857 C0,5.82078764 0.217621622,6.02316602 0.486486486,6.02316602 L4.82562162,6.02316602 L1.43967568,9.16695753 C1.24994595,9.34343629 1.24994595,9.62953668 1.43967568,9.80601544 C1.5347027,9.89425483 1.65924324,9.93822394 1.78378378,9.93822394 C1.90832432,9.93822394 2.03286486,9.89425483 2.12789189,9.80601544 L5.51351351,6.66192278 L5.51351351,10.6911197 C5.51351351,10.9404788 5.73113514,11.1428571 6,11.1428571 C6.26854054,11.1428571 6.48648649,10.9404788 6.48648649,10.6911197 L6.48648649,6.66192278 L9.87210811,9.80601544 C9.96713514,9.89425483 10.0916757,9.93822394 10.2162162,9.93822394 C10.3407568,9.93822394 10.4652973,9.89425483 10.5603243,9.80601544 C10.7500541,9.62953668 10.7500541,9.34343629 10.5603243,9.16695753 L7.17437838,6.02316602 L11.5135135,6.02316602 C11.7820541,6.02316602 12,5.82078764 12,5.57142857 C12,5.3220695 11.7820541,5.11969112 11.5135135,5.11969112" id="Fill-21" fill="#5090D6" mask="url(#mask-2)"></path>
        </g>
    </g>
</svg>