<?xml version="1.0" encoding="UTF-8"?>
<svg width="445px" height="114px" viewBox="0 0 445 114" version="1.1" xmlns="http://www.w3.org/2000/svg" xmlns:xlink="http://www.w3.org/1999/xlink">
    <!-- Generator: Sketch 55.2 (78181) - https://sketchapp.com -->
    <title>Group</title>
    <desc>Created with Sketch.</desc>
    <g id="Page-1" stroke="none" stroke-width="1" fill="none" fill-rule="evenodd">
        <g id="Group" transform="translate(0.935400, 0.527590)" fill="#FFFFFF">
            <path d="M72.5,52.9032097 L40.677,52.9032097 L60.271,33.7232097 C60.862,33.1432097 60.873,32.1942097 60.293,31.6022097 C59.714,31.0082097 58.764,31.0002097 58.172,31.5792097 L38.5,50.8362097 L38.5,19.6532097 C38.5,18.8252097 37.828,18.1532097 37,18.1532097 C36.171,18.1532097 35.5,18.8252097 35.5,19.6532097 L35.5,50.8362097 L15.827,31.5792097 C15.235,31.0002097 14.285,31.0092097 13.706,31.6022097 C13.127,32.1942097 13.137,33.1432097 13.729,33.7232097 L33.322,52.9032097 L1.5,52.9032097 C0.671,52.9032097 0,53.5752097 0,54.4032097 C0,55.2312097 0.671,55.9032097 1.5,55.9032097 L33.322,55.9032097 L13.729,75.0832097 C13.137,75.6632097 13.127,76.6122097 13.706,77.2042097 C14,77.5052097 14.389,77.6552097 14.778,77.6552097 C15.156,77.6552097 15.535,77.5122097 15.827,77.2272097 L35.5,57.9702097 L35.5,89.1532097 C35.5,89.9812097 36.171,90.6532097 37,90.6532097 C37.828,90.6532097 38.5,89.9812097 38.5,89.1532097 L38.5,57.9702097 L58.172,77.2272097 C58.464,77.5122097 58.843,77.6552097 59.222,77.6552097 C59.61,77.6552097 60,77.5052097 60.293,77.2042097 C60.873,76.6122097 60.862,75.6632097 60.271,75.0832097 L40.677,55.9032097 L72.5,55.9032097 C73.328,55.9032097 74,55.2312097 74,54.4032097 C74,53.5752097 73.328,52.9032097 72.5,52.9032097" id="Fill-1"></path>
            <path d="M428.0518,92.9452097 L414.6728,92.9452097 L425.1128,82.5062097 C425.6978,81.9202097 425.6978,80.9702097 425.1128,80.3842097 C424.5268,79.7992097 423.5768,79.7992097 422.9908,80.3842097 L412.5518,90.8242097 L412.5518,77.4452097 C412.5518,76.6172097 411.8798,75.9452097 411.0518,75.9452097 C410.2228,75.9452097 409.5518,76.6172097 409.5518,77.4452097 L409.5518,90.8242097 L399.1128,80.3842097 C398.5268,79.7992097 397.5768,79.7992097 396.9908,80.3842097 C396.4058,80.9702097 396.4058,81.9202097 396.9908,82.5062097 L407.4308,92.9452097 L394.0518,92.9452097 C393.2228,92.9452097 392.5518,93.6172097 392.5518,94.4452097 C392.5518,95.2732097 393.2228,95.9452097 394.0518,95.9452097 L407.4308,95.9452097 L396.9908,106.38421 C396.4058,106.97021 396.4058,107.92021 396.9908,108.50621 C397.2838,108.79921 397.6678,108.94521 398.0518,108.94521 C398.4358,108.94521 398.8198,108.79921 399.1128,108.50621 L409.5518,98.0662097 L409.5518,111.44521 C409.5518,112.27321 410.2228,112.94521 411.0518,112.94521 C411.8798,112.94521 412.5518,112.27321 412.5518,111.44521 L412.5518,98.0662097 L422.9908,108.50621 C423.2838,108.79921 423.6678,108.94521 424.0518,108.94521 C424.4358,108.94521 424.8198,108.79921 425.1128,108.50621 C425.6978,107.92021 425.6978,106.97021 425.1128,106.38421 L414.6728,95.9452097 L428.0518,95.9452097 C428.8798,95.9452097 429.5518,95.2732097 429.5518,94.4452097 C429.5518,93.6172097 428.8798,92.9452097 428.0518,92.9452097" id="Fill-3"></path>
            <path d="M444.0625,61.1210097 C444.0625,63.6060097 442.0475,65.6210097 439.5625,65.6210097 C437.0775,65.6210097 435.0625,63.6060097 435.0625,61.1210097 C435.0625,58.6360097 437.0775,56.6210097 439.5625,56.6210097 C442.0475,56.6210097 444.0625,58.6360097 444.0625,61.1210097" id="Fill-5"></path>
            <path d="M296.8584,61.1210097 L357.4334,61.1210097 C359.6424,61.1210097 361.4334,59.3300097 361.4334,57.1210097 C361.4334,54.9120097 359.6424,53.1210097 357.4334,53.1210097 L331.1464,53.1210097 L331.1464,35.6860097 C331.1464,33.4770097 329.3554,31.6860097 327.1464,31.6860097 C324.9374,31.6860097 323.1464,33.4770097 323.1464,35.6860097 L323.1464,53.1210097 L296.8584,53.1210097 C294.6494,53.1210097 292.8584,54.9120097 292.8584,57.1210097 C292.8584,59.3300097 294.6494,61.1210097 296.8584,61.1210097" id="Fill-7"></path>
            <path d="M98.4981,80.7948097 C99.4021,80.5408097 176.3131,59.3268097 177.0911,59.1128097 C179.0201,58.5808097 180.2601,56.7038097 179.9911,54.7198097 C179.7231,52.7358097 178.0291,51.2568097 176.0271,51.2568097 L135.0221,51.2568097 L135.0221,39.4138097 C135.0221,39.3478097 135.0061,39.2858097 135.0031,39.2208097 L171.5611,39.2208097 C173.7701,39.2208097 175.5611,37.4298097 175.5611,35.2208097 C175.5611,33.0118097 173.7701,31.2208097 171.5611,31.2208097 L100.9291,31.2208097 C95.1691,31.2208097 90.4831,26.5348097 90.4831,20.7748097 C90.4831,15.0168097 95.1691,10.3308097 100.9291,10.3308097 L171.5611,10.3308097 C173.7701,10.3308097 175.5611,8.53980973 175.5611,6.33080973 C175.5611,4.12180973 173.7701,2.33080973 171.5611,2.33080973 L100.9291,2.33080973 C90.7581,2.33080973 82.4831,10.6058097 82.4831,20.7748097 C82.4831,30.9458097 90.7581,39.2208097 100.9291,39.2208097 L127.0421,39.2208097 C127.0381,39.2858097 127.0221,39.3478097 127.0221,39.4138097 L127.0221,51.2568097 L85.5521,51.2568097 C83.3431,51.2568097 81.5521,53.0478097 81.5521,55.2568097 C81.5521,57.4658097 83.3431,59.2568097 85.5521,59.2568097 L146.4821,59.2568097 C124.1191,65.4258097 96.7271,72.9828097 96.3281,73.0948097 C88.3011,75.3578097 82.5661,82.2858097 82.0581,90.3318097 C82.0311,90.7518097 82.0181,91.1758097 82.0181,91.6028097 C82.0181,102.54381 90.9191,111.44481 101.8601,111.44481 L159.1851,111.44481 C170.1261,111.44481 179.0271,102.54381 179.0271,91.6028097 C179.0271,80.6608097 170.1261,71.7598097 159.1851,71.7598097 L146.3961,71.7598097 C144.1871,71.7598097 142.3961,73.5508097 142.3961,75.7598097 C142.3961,77.9688097 144.1871,79.7598097 146.3961,79.7598097 L159.1851,79.7598097 C165.7151,79.7598097 171.0271,85.0718097 171.0271,91.6028097 C171.0271,98.1328097 165.7151,103.44481 159.1851,103.44481 L101.8601,103.44481 C95.3301,103.44481 90.0181,98.1328097 90.0181,91.6028097 C90.0181,91.3478097 90.0251,91.0938097 90.0421,90.8388097 C90.3371,86.1738097 93.7351,82.1378097 98.4981,80.7948097" id="Fill-9"></path>
            <path d="M278.2198,2.33090973 C276.0108,2.33090973 274.2198,4.12190973 274.2198,6.33090973 L274.2198,49.3939097 L257.7178,49.3939097 C255.5088,49.3939097 253.7178,51.1849097 253.7178,53.3939097 C253.7178,55.6019097 255.5088,57.3939097 257.7178,57.3939097 L274.2198,57.3939097 L274.2198,93.3399097 C274.2198,98.9119097 269.6868,103.44491 264.1158,103.44491 C259.7768,103.44491 255.9288,100.68391 254.5408,96.5729097 L238.6178,49.4169097 C235.4798,40.1229097 227.4688,33.5039097 218.0018,32.0079097 L230.5728,5.72690973 C231.5258,3.73390973 230.6828,1.34590973 228.6908,0.392909725 C226.6968,-0.561090275 224.3088,0.281909725 223.3558,2.27490973 L183.2588,86.1089097 C182.3058,88.1019097 183.1488,90.4899097 185.1418,91.4429097 C185.6988,91.7099097 186.2858,91.8359097 186.8648,91.8359097 C188.3568,91.8359097 189.7888,90.9969097 190.4758,89.5599097 L214.3228,39.7019097 C221.9128,39.8719097 228.5998,44.7539097 231.0388,51.9759097 L246.9608,99.1329097 C249.4488,106.49691 256.3418,111.44491 264.1158,111.44491 C274.0978,111.44491 282.2198,103.32291 282.2198,93.3399097 L282.2198,6.33090973 C282.2198,4.12190973 280.4288,2.33090973 278.2198,2.33090973" id="Fill-11"></path>
            <path d="M390.0518,58.7128097 C384.5488,58.7128097 380.0728,54.2358097 380.0728,48.7338097 L380.0728,4.93280973 C380.0728,2.72380973 378.2808,0.932809725 376.0728,0.932809725 C373.8638,0.932809725 372.0728,2.72380973 372.0728,4.93280973 L372.0728,48.7338097 C372.0728,58.6478097 380.1378,66.7128097 390.0518,66.7128097 C392.2608,66.7128097 394.0518,64.9218097 394.0518,62.7128097 C394.0518,60.5038097 392.2608,58.7128097 390.0518,58.7128097" id="Fill-13"></path>
            <path d="M376.0723,101.58091 L322.0193,101.58091 C310.3513,101.58091 300.8583,92.0879097 300.8583,80.4199097 L300.8583,68.3039097 C300.8583,66.0949097 299.0673,64.3039097 296.8583,64.3039097 C294.6493,64.3039097 292.8583,66.0949097 292.8583,68.3039097 L292.8583,80.4199097 C292.8583,96.4989097 305.9403,109.58091 322.0193,109.58091 L376.0723,109.58091 C378.2813,109.58091 380.0723,107.78991 380.0723,105.58091 C380.0723,103.37191 378.2813,101.58091 376.0723,101.58091" id="Fill-15"></path>
            <path d="M296.8584,10.3309097 L353.4334,10.3309097 L353.4334,39.4139097 C353.4334,41.6229097 355.2244,43.4139097 357.4334,43.4139097 C359.6424,43.4139097 361.4334,41.6229097 361.4334,39.4139097 L361.4334,6.33090973 C361.4334,4.12190973 359.6424,2.33090973 357.4334,2.33090973 L296.8584,2.33090973 C294.6494,2.33090973 292.8584,4.12190973 292.8584,6.33090973 C292.8584,8.53990973 294.6494,10.3309097 296.8584,10.3309097" id="Fill-17"></path>
        </g>
    </g>
</svg>