<?xml version="1.0" encoding="UTF-8"?>
<svg width="396px" height="491px" viewBox="0 0 396 491" version="1.1" xmlns="http://www.w3.org/2000/svg" xmlns:xlink="http://www.w3.org/1999/xlink">
    <!-- Generator: Sketch 55.2 (78181) - https://sketchapp.com -->
    <title>Group 49</title>
    <desc>Created with Sketch.</desc>
    <defs>
        <polygon id="path-1" points="0 0.0001 395.045 0.0001 395.045 254.8461 0 254.8461"></polygon>
        <polygon id="path-3" points="0.0397 0.0004 267.0887 0.0004 267.0887 100 0.0397 100"></polygon>
    </defs>
    <g id="Page-1" stroke="none" stroke-width="1" fill="none" fill-rule="evenodd">
        <g id="Group-49">
            <polygon id="Fill-1" fill="#FFFFFF" points="65.5915 488 329.5915 488 329.5915 0 65.5915 0"></polygon>
            <g id="Group-48">
                <g id="Group-4" transform="translate(0.000000, 136.000000)">
                    <mask id="mask-2" fill="white">
                        <use xlink:href="#path-1"></use>
                    </mask>
                    <g id="Clip-3"></g>
                    <path d="M364.8387,254.8461 L30.2067,254.8461 C13.5247,254.8461 -0.0003,241.3221 -0.0003,224.6391 L-0.0003,30.2071 C-0.0003,13.5241 13.5247,0.0001 30.2067,0.0001 L364.8387,0.0001 C381.5217,0.0001 395.0457,13.5241 395.0457,30.2071 L395.0457,224.6391 C395.0457,241.3221 381.5217,254.8461 364.8387,254.8461" id="Fill-2" fill="#FFFFFF" mask="url(#mask-2)"></path>
                </g>
                <path d="M385.493,167.5776 C385.493,154.8526 375.14,144.5006 362.416,144.5006 L248.423,144.5006 C241.942,144.5006 235.848,147.0236 231.265,151.6066 L224.6,158.2726 C217.359,165.5136 207.732,169.5006 197.493,169.5006 C196.665,169.5006 195.993,170.1726 195.993,171.0006 C195.993,171.8286 196.665,172.5006 197.493,172.5006 C208.534,172.5006 218.914,168.2006 226.722,160.3936 L233.387,153.7276 C237.403,149.7126 242.743,147.5006 248.423,147.5006 L362.416,147.5006 C373.487,147.5006 382.493,156.5076 382.493,167.5776 L382.493,345.8976 C378.396,338.5126 370.52,333.5006 361.493,333.5006 L294.857,333.5006 C273.345,333.5006 253.119,341.8786 237.908,357.0906 L214.653,380.3446 C205.123,389.8776 189.608,389.8826 180.069,380.3566 L176.43,376.7226 C163.37,363.6816 146.013,356.5006 127.556,356.5006 L35.556,356.5006 C34.727,356.5006 34.056,357.1726 34.056,358.0006 C34.056,358.8286 34.727,359.5006 35.556,359.5006 L127.556,359.5006 C145.212,359.5006 161.816,366.3706 174.309,378.8466 L177.949,382.4796 C183.301,387.8236 190.328,390.4956 197.354,390.4956 C204.389,390.4956 211.422,387.8186 216.774,382.4656 L240.029,359.2116 C254.674,344.5656 274.145,336.5006 294.857,336.5006 L361.493,336.5006 C373.073,336.5006 382.493,345.9216 382.493,357.5006 C382.493,369.0796 373.073,378.5006 361.493,378.5006 L253.556,378.5006 C252.727,378.5006 252.056,379.1726 252.056,380.0006 C252.056,380.8286 252.727,381.5006 253.556,381.5006 L361.493,381.5006 C374.727,381.5006 385.493,370.7336 385.493,357.5006 L385.493,167.5776 Z" id="Fill-5" fill="#5090D6"></path>
                <path d="M356.5555,359.5004 C357.3845,359.5004 358.0555,358.8284 358.0555,358.0004 C358.0555,357.1724 357.3845,356.5004 356.5555,356.5004 L275.5555,356.5004 C274.7275,356.5004 274.0555,357.1724 274.0555,358.0004 C274.0555,358.8284 274.7275,359.5004 275.5555,359.5004 L356.5555,359.5004 Z" id="Fill-7" fill="#5090D6"></path>
                <path d="M131.5555,379.5004 L33.7425,379.5004 C22.0265,379.5004 12.4925,369.9684 12.4925,358.2504 C12.4925,346.5324 22.0265,337.0004 33.7425,337.0004 L142.3325,337.0004 C159.4875,337.0004 175.6155,343.6814 187.7445,355.8114 C188.3305,356.3964 189.2805,356.3964 189.8665,355.8114 C190.4515,355.2254 190.4515,354.2754 189.8665,353.6894 C177.1695,340.9924 160.2875,334.0004 142.3325,334.0004 L33.7425,334.0004 C24.5995,334.0004 16.6235,339.0884 12.4925,346.5814 L12.4925,167.5774 C12.4925,156.5074 21.4995,147.5004 32.5715,147.5004 L144.4425,147.5004 C151.4905,147.5004 158.1175,150.2454 163.1015,155.2294 L168.2655,160.3944 C168.8515,160.9804 169.8005,160.9804 170.3865,160.3944 C170.9725,159.8084 170.9725,158.8584 170.3865,158.2724 L165.2225,153.1074 C159.6715,147.5574 152.2915,144.5004 144.4425,144.5004 L32.5715,144.5004 C19.8455,144.5004 9.4925,154.8534 9.4925,167.5774 L9.4925,358.0004 C9.4925,358.0174 9.4975,358.0334 9.4975,358.0504 C9.4975,358.1174 9.4925,358.1834 9.4925,358.2504 C9.4925,371.6214 20.3715,382.5004 33.7425,382.5004 L131.5555,382.5004 C132.3845,382.5004 133.0555,381.8284 133.0555,381.0004 C133.0555,380.1724 132.3845,379.5004 131.5555,379.5004" id="Fill-9" fill="#5090D6"></path>
                <path d="M262.5985,253.7797 L323.1735,253.7797 C325.1065,253.7797 326.6735,252.2127 326.6735,250.2797 C326.6735,248.3467 325.1065,246.7797 323.1735,246.7797 L296.3855,246.7797 L296.3855,228.8457 C296.3855,226.9137 294.8195,225.3457 292.8855,225.3457 C290.9525,225.3457 289.3855,226.9137 289.3855,228.8457 L289.3855,246.7797 L262.5985,246.7797 C260.6645,246.7797 259.0985,248.3467 259.0985,250.2797 C259.0985,252.2127 260.6645,253.7797 262.5985,253.7797" id="Fill-11" fill="#5090D6"></path>
                <path d="M141.7665,244.9164 L100.2615,244.9164 L100.2615,232.5734 C100.2615,232.3354 100.2375,232.1044 100.1925,231.8804 L137.3005,231.8804 C139.2345,231.8804 140.8005,230.3124 140.8005,228.3804 C140.8005,226.4474 139.2345,224.8804 137.3005,224.8804 L66.6675,224.8804 C60.6325,224.8804 55.7235,219.9704 55.7235,213.9354 C55.7235,207.8994 60.6325,202.9894 66.6675,202.9894 L137.3005,202.9894 C139.2345,202.9894 140.8005,201.4224 140.8005,199.4894 C140.8005,197.5574 139.2345,195.9894 137.3005,195.9894 L66.6675,195.9894 C56.7735,195.9894 48.7235,204.0394 48.7235,213.9354 C48.7235,223.8304 56.7735,231.8804 66.6675,231.8804 L93.3315,231.8804 C93.2875,232.1044 93.2615,232.3354 93.2615,232.5734 L93.2615,244.9164 L51.2905,244.9164 C49.3585,244.9164 47.7905,246.4834 47.7905,248.4164 C47.7905,250.3494 49.3585,251.9164 51.2905,251.9164 L115.9145,251.9164 C93.0175,258.2324 62.6225,266.6164 62.2035,266.7344 C54.3805,268.9394 48.7915,275.6874 48.2965,283.5224 C48.2705,283.9334 48.2565,284.3454 48.2565,284.7614 C48.2565,295.4274 56.9345,304.1044 67.5995,304.1044 L124.9235,304.1044 C135.5895,304.1044 144.2665,295.4274 144.2665,284.7614 C144.2665,274.0954 135.5895,265.4184 124.9235,265.4184 L112.1355,265.4184 C110.2035,265.4184 108.6355,266.9854 108.6355,268.9184 C108.6355,270.8514 110.2035,272.4184 112.1355,272.4184 L124.9235,272.4184 C131.7295,272.4184 137.2665,277.9554 137.2665,284.7614 C137.2665,291.5664 131.7295,297.1044 124.9235,297.1044 L67.5995,297.1044 C60.7935,297.1044 55.2565,291.5664 55.2565,284.7614 C55.2565,284.4954 55.2655,284.2314 55.2825,283.9674 C55.5905,279.0904 59.1355,274.8724 64.1025,273.4734 C64.9675,273.2294 141.9195,252.0044 142.6975,251.7904 C144.3855,251.3244 145.4695,249.6834 145.2355,247.9464 C144.9995,246.2114 143.5185,244.9164 141.7665,244.9164" id="Fill-13" fill="#5090D6"></path>
                <path d="M243.9598,195.9897 C242.0258,195.9897 240.4598,197.5567 240.4598,199.4897 L240.4598,243.0517 L223.4568,243.0517 C221.5238,243.0517 219.9568,244.6197 219.9568,246.5517 C219.9568,248.4847 221.5238,250.0517 223.4568,250.0517 L240.4598,250.0517 L240.4598,286.4997 C240.4598,292.3467 235.7018,297.1037 229.8548,297.1037 C225.3018,297.1037 221.2638,294.2057 219.8068,289.8907 L203.8838,242.7357 C200.7318,233.4017 192.5638,226.8357 182.9888,225.5807 L195.8608,198.6707 C196.6948,196.9267 195.9578,194.8377 194.2138,194.0037 C192.4698,193.1687 190.3798,193.9067 189.5468,195.6507 L149.4498,279.4837 C148.6148,281.2267 149.3538,283.3167 151.0968,284.1507 C151.5838,284.3847 152.0988,284.4947 152.6048,284.4947 C153.9098,284.4947 155.1638,283.7597 155.7648,282.5037 L179.7518,232.3487 C187.6868,232.3897 194.7108,237.4517 197.2518,244.9757 L213.1748,292.1317 C215.5928,299.2927 222.2958,304.1037 229.8548,304.1037 C239.5628,304.1037 247.4598,296.2067 247.4598,286.4997 L247.4598,199.4897 C247.4598,197.5567 245.8928,195.9897 243.9598,195.9897" id="Fill-15" fill="#5090D6"></path>
                <path d="M355.7909,252.3715 C350.0129,252.3715 345.3119,247.6715 345.3119,241.8925 L345.3119,198.0925 C345.3119,196.1595 343.7449,194.5925 341.8119,194.5925 C339.8789,194.5925 338.3119,196.1595 338.3119,198.0925 L338.3119,241.8925 C338.3119,251.5305 346.1529,259.3715 355.7909,259.3715 C357.7249,259.3715 359.2909,257.8045 359.2909,255.8715 C359.2909,253.9385 357.7249,252.3715 355.7909,252.3715" id="Fill-17" fill="#5090D6"></path>
                <path d="M341.8123,295.2406 L287.7583,295.2406 C275.8153,295.2406 266.0983,285.5236 266.0983,273.5796 L266.0983,261.4636 C266.0983,259.5306 264.5313,257.9636 262.5983,257.9636 C260.6653,257.9636 259.0983,259.5306 259.0983,261.4636 L259.0983,273.5796 C259.0983,289.3836 271.9553,302.2406 287.7583,302.2406 L341.8123,302.2406 C343.7453,302.2406 345.3123,300.6736 345.3123,298.7406 C345.3123,296.8076 343.7453,295.2406 341.8123,295.2406" id="Fill-19" fill="#5090D6"></path>
                <path d="M262.5985,202.9897 L319.6735,202.9897 L319.6735,232.5737 C319.6735,234.5067 321.2405,236.0737 323.1735,236.0737 C325.1065,236.0737 326.6735,234.5067 326.6735,232.5737 L326.6735,199.4897 C326.6735,197.5567 325.1065,195.9897 323.1735,195.9897 L262.5985,195.9897 C260.6645,195.9897 259.0985,197.5567 259.0985,199.4897 C259.0985,201.4227 260.6645,202.9897 262.5985,202.9897" id="Fill-21" fill="#5090D6"></path>
                <path d="M79.2919,15.0004 L79.2919,133.0004 L79.2919,136.0004 L141.8499,136.0004 L151.9459,136.0004 C158.6679,136.0004 165.0119,138.5924 169.8109,143.2984 L174.5899,147.9844 C180.5169,153.7984 188.3529,157.0004 196.6549,157.0004 C205.2459,157.0004 213.5689,153.4294 219.4899,147.2034 L222.6029,143.9314 C227.3959,138.8914 234.1349,136.0004 241.0899,136.0004 L251.9239,136.0004 L315.8869,136.0004 L315.8869,133.0004 L315.8869,15.0004 L79.2919,15.0004 Z" id="Fill-23" fill="#5090D6"></path>
                <polygon id="Fill-25" fill="#5090D6" points="328.0887 0.0004 67.0887 0.0004 64.0937 0.0004 64.0887 2.9954 63.9017 132.9954 63.8977 136.0004 66.9017 136.0004 66.9137 136.0004 66.9137 133.0004 66.9017 133.0004 66.9137 124.7264 66.9137 124.7204 67.0887 3.0004 328.0887 3.0004 328.0887 124.7204 328.0887 133.0004 328.0887 136.0004 331.0887 136.0004 331.0887 133.0004 331.0887 3.0004 331.0887 0.0004"></polygon>
                <path d="M184.3866,70.2504 L152.5636,70.2504 L172.1576,51.0704 C172.7496,50.4904 172.7596,49.5414 172.1806,48.9494 C171.6016,48.3554 170.6516,48.3474 170.0596,48.9264 L150.3866,68.1824 L150.3866,37.0004 C150.3866,36.1724 149.7156,35.5004 148.8866,35.5004 C148.0586,35.5004 147.3866,36.1724 147.3866,37.0004 L147.3866,68.1824 L127.7146,48.9264 C127.1216,48.3474 126.1726,48.3564 125.5936,48.9494 C125.0136,49.5414 125.0246,50.4904 125.6156,51.0704 L145.2096,70.2504 L113.3866,70.2504 C112.5586,70.2504 111.8866,70.9224 111.8866,71.7504 C111.8866,72.5784 112.5586,73.2504 113.3866,73.2504 L145.2096,73.2504 L125.6156,92.4304 C125.0246,93.0104 125.0136,93.9594 125.5936,94.5514 C125.8866,94.8524 126.2766,95.0024 126.6646,95.0024 C127.0436,95.0024 127.4226,94.8594 127.7146,94.5744 L147.3866,75.3174 L147.3866,106.5004 C147.3866,107.3284 148.0586,108.0004 148.8866,108.0004 C149.7156,108.0004 150.3866,107.3284 150.3866,106.5004 L150.3866,75.3174 L170.0596,94.5744 C170.3516,94.8594 170.7306,95.0024 171.1086,95.0024 C171.4976,95.0024 171.8866,94.8524 172.1806,94.5514 C172.7596,93.9594 172.7496,93.0104 172.1576,92.4304 L152.5636,73.2504 L184.3866,73.2504 C185.2156,73.2504 185.8866,72.5784 185.8866,71.7504 C185.8866,70.9224 185.2156,70.2504 184.3866,70.2504" id="Fill-27" fill="#FFFFFF"></path>
                <path d="M263.3866,99.0004 L250.0076,99.0004 L260.4476,88.5614 C261.0326,87.9754 261.0326,87.0254 260.4476,86.4394 C259.8616,85.8544 258.9116,85.8544 258.3256,86.4394 L247.8866,96.8794 L247.8866,83.5004 C247.8866,82.6724 247.2156,82.0004 246.3866,82.0004 C245.5586,82.0004 244.8866,82.6724 244.8866,83.5004 L244.8866,96.8794 L234.4476,86.4394 C233.8616,85.8544 232.9116,85.8544 232.3256,86.4394 C231.7406,87.0254 231.7406,87.9754 232.3256,88.5614 L242.7656,99.0004 L229.3866,99.0004 C228.5586,99.0004 227.8866,99.6724 227.8866,100.5004 C227.8866,101.3284 228.5586,102.0004 229.3866,102.0004 L242.7656,102.0004 L232.3256,112.4394 C231.7406,113.0254 231.7406,113.9754 232.3256,114.5614 C232.6186,114.8544 233.0026,115.0004 233.3866,115.0004 C233.7706,115.0004 234.1546,114.8544 234.4476,114.5614 L244.8866,104.1214 L244.8866,117.5004 C244.8866,118.3284 245.5586,119.0004 246.3866,119.0004 C247.2156,119.0004 247.8866,118.3284 247.8866,117.5004 L247.8866,104.1214 L258.3256,114.5614 C258.6186,114.8544 259.0026,115.0004 259.3866,115.0004 C259.7706,115.0004 260.1546,114.8544 260.4476,114.5614 C261.0326,113.9754 261.0326,113.0254 260.4476,112.4394 L250.0076,102.0004 L263.3866,102.0004 C264.2156,102.0004 264.8866,101.3284 264.8866,100.5004 C264.8866,99.6724 264.2156,99.0004 263.3866,99.0004" id="Fill-29" fill="#FFFFFF"></path>
                <path d="M284.3866,61.0004 C284.3866,63.4854 282.3716,65.5004 279.8866,65.5004 C277.4016,65.5004 275.3866,63.4854 275.3866,61.0004 C275.3866,58.5154 277.4016,56.5004 279.8866,56.5004 C282.3716,56.5004 284.3866,58.5154 284.3866,61.0004" id="Fill-31" fill="#FFFFFF"></path>
                <path d="M204.162,405.6762 C205.496,405.3892 206.812,405.0022 208.112,404.5562 C206.812,405.0022 205.496,405.3892 204.162,405.6762 L204.162,405.6762 Z M211.928,402.9812 C213.177,402.3752 214.405,401.7092 215.593,400.9452 C214.406,401.7092 213.177,402.3752 211.928,402.9812 L211.928,402.9812 Z M184.888,404.3002 C187.208,405.1602 189.599,405.7622 192.02,406.1072 C189.599,405.7622 187.208,405.1602 184.888,404.3002 L184.888,404.3002 Z M178.182,400.9452 C179.605,401.8632 181.079,402.6652 182.592,403.3542 C181.079,402.6652 179.605,401.8632 178.182,400.9452 L178.182,400.9452 Z M239.189,391.0002 C230.224,391.0002 221.503,393.5672 213.968,398.4232 C208.864,401.7122 202.958,403.4502 196.887,403.4502 C190.815,403.4502 184.909,401.7122 179.807,398.4232 C172.27,393.5672 163.549,391.0002 154.584,391.0002 L79.292,391.0002 L79.292,394.0002 L79.292,476.0002 L315.887,476.0002 L315.887,394.0002 L315.887,391.0002 L239.189,391.0002 Z" id="Fill-33" fill="#5090D6"></path>
                <g id="Group-37" transform="translate(64.000000, 391.000000)">
                    <mask id="mask-4" fill="white">
                        <use xlink:href="#path-3"></use>
                    </mask>
                    <g id="Clip-36"></g>
                    <polygon id="Fill-35" fill="#5090D6" mask="url(#mask-4)" points="264.0887 0.0004 264.0887 3.0004 264.0887 10.6594 264.0887 97.0004 3.0887 97.0004 3.0457 10.6594 3.0457 0.0004 0.0397 0.0004 0.0407 3.0014 0.0887 97.0014 0.0907 100.0004 3.0887 100.0004 264.0887 100.0004 267.0887 100.0004 267.0887 97.0004 267.0887 3.0004 267.0887 0.0004"></polygon>
                </g>
                <path d="M134.1844,452.0942 C133.5384,452.2312 132.1104,452.1962 131.3294,452.0942 C131.2944,450.7002 131.2604,447.2332 131.2604,443.1192 C129.1194,443.1532 126.7394,443.1532 124.9714,443.0852 C124.9034,442.3032 124.9034,441.1472 124.9714,440.4672 C126.7394,440.4002 129.1534,440.4002 131.2264,440.4342 C131.2264,437.2722 131.2264,433.8722 131.2604,430.8802 C129.1194,430.9142 126.7394,430.9142 124.9714,430.8462 C124.9034,430.0652 124.9034,428.9082 124.9714,428.2292 C126.7394,428.1602 129.1534,428.1602 131.2604,428.1952 C131.2944,425.3392 131.2944,423.0612 131.3294,421.9732 C131.9744,421.8032 133.4704,421.8032 134.1844,421.9732 C134.3204,426.3592 134.2864,448.0492 134.1844,452.0942 M122.4894,423.1292 C122.7274,427.1412 122.7954,446.1112 122.5914,449.8172 C121.9794,449.9872 120.3814,449.9522 119.6674,449.8172 C119.6674,446.6212 119.7024,428.2292 119.6674,425.7462 C117.5604,425.8152 109.7414,425.8152 107.0884,425.7462 C106.9534,424.9982 106.9534,423.8432 107.0884,423.1292 C109.8084,422.9932 119.0224,422.9592 122.4894,423.1292" id="Fill-38" fill="#FFFFFF"></path>
                <path d="M149.3846,426.5971 C149.3846,428.1271 150.8126,429.1131 159.1086,429.1131 C167.4036,429.1131 168.8306,428.1271 168.8306,426.5971 C168.8306,425.1011 167.4036,424.1491 159.1086,424.1491 C150.8126,424.1491 149.3846,425.1011 149.3846,426.5971 M146.3936,426.5971 C146.3936,423.4011 148.7736,421.7011 159.1086,421.7011 C169.4436,421.7011 171.8216,423.4011 171.8216,426.5971 C171.8216,429.8261 169.4436,431.5611 159.1086,431.5611 C148.7736,431.5611 146.3936,429.8261 146.3936,426.5971 M173.4886,436.3201 C170.9386,436.3541 165.9066,436.3881 160.6036,436.3881 C160.6376,437.3401 160.6376,438.3601 160.6036,439.3461 C165.0236,439.3461 169.0696,439.3791 171.3126,439.4131 C171.4476,440.8421 171.4476,445.4311 171.3126,446.9271 L149.6226,446.9271 L149.6226,449.7831 L172.0946,449.7831 C172.1966,450.4961 172.1626,451.4141 172.0946,452.0941 C169.9526,452.2641 151.0166,452.2981 146.8006,452.0941 C146.6986,450.2581 146.6306,447.0631 146.8006,444.5801 L168.4906,444.5801 L168.4906,441.7591 L146.8686,441.7591 C146.7336,441.0791 146.7336,439.8891 146.8686,439.4131 C149.8266,439.3791 153.7366,439.3461 157.6126,439.3461 C157.5776,438.3941 157.5776,437.3401 157.6126,436.3881 C152.5126,436.3881 147.5486,436.3541 144.7276,436.3201 C144.5916,435.6061 144.5916,434.6551 144.7276,433.9401 C152.0706,433.8381 167.9816,433.8381 173.4886,433.9401 C173.6236,434.6191 173.6236,435.5371 173.4886,436.3201" id="Fill-40" fill="#FFFFFF"></path>
                <path d="M184.8807,438.4613 C184.6767,434.7563 184.7107,427.0393 184.8807,423.4003 C188.3147,423.2313 206.0947,423.2993 209.1887,423.4003 C209.3237,424.1483 209.3237,425.2713 209.1887,426.0193 C206.4347,426.0863 190.5917,426.0863 187.8047,426.0193 C187.7707,428.2293 187.7707,433.8043 187.8047,435.8773 C190.6257,435.8773 207.2167,435.8443 209.8677,435.8773 C209.9707,436.6253 209.9707,437.8503 209.8677,438.4613 C207.1487,438.5643 188.3487,438.5643 184.8807,438.4613 M211.5677,451.0743 C208.1007,451.2103 187.1577,451.1763 182.8067,451.0743 C182.6707,450.2583 182.6707,449.3073 182.8067,448.5593 C185.1867,448.4903 190.3547,448.4903 195.6917,448.4903 C195.6567,446.0763 195.6567,442.2343 195.7257,440.6043 C196.4737,440.4673 197.8667,440.5013 198.6497,440.6043 C198.7177,442.3033 198.6837,446.1453 198.6497,448.4903 C204.4627,448.4903 209.8677,448.5243 211.5677,448.5593 C211.7037,449.2733 211.7037,450.2583 211.5677,451.0743" id="Fill-42" fill="#FFFFFF"></path>
                <path d="M248.4237,452.0942 C247.7777,452.2312 246.3507,452.1962 245.5687,452.0942 C245.5007,449.9182 245.4667,442.4732 245.4667,435.4702 C242.8827,435.5042 239.3137,435.4702 237.4087,435.4032 C237.3417,434.6192 237.3417,433.4642 237.4087,432.7502 C239.4837,432.6822 242.9507,432.6822 245.5007,432.7162 C245.5007,427.8552 245.5337,423.5712 245.5687,421.9732 C246.2147,421.8032 247.7097,421.8032 248.4237,421.9732 C248.5607,426.3592 248.5267,448.0492 248.4237,452.0942 M232.1057,434.8922 C234.8937,439.0392 239.0747,445.1942 241.0467,448.2522 C240.6057,448.7972 239.4147,449.6132 238.7357,449.8172 C236.9677,447.3692 233.1937,441.6922 230.5757,437.6122 C228.2977,441.9302 225.0687,447.7422 223.4707,450.2922 C222.8247,450.1912 221.4987,449.5452 220.9887,449.0002 C222.7567,445.8052 226.4957,439.1412 229.0797,434.6552 C229.0127,430.7442 229.0457,424.9312 229.1137,422.7552 C229.7597,422.6192 231.3237,422.5852 232.0717,422.7552 C232.1397,425.1012 232.1737,431.0512 232.1057,434.8922" id="Fill-44" fill="#FFFFFF"></path>
                <path d="M288.6463,433.4301 C288.0343,433.4981 286.5033,433.4981 285.1443,433.4981 C285.1443,437.7821 285.1443,441.9971 285.1103,444.1731 C284.4643,444.2761 283.0023,444.2761 282.2203,444.1731 C282.1863,439.7541 282.1863,426.1211 282.2203,421.9731 C282.9003,421.8031 284.3963,421.8031 285.1103,421.9731 C285.1443,423.7761 285.1443,427.1741 285.1443,430.8131 C286.4703,430.8131 287.9653,430.8131 288.6463,430.8461 C288.7133,431.5611 288.7133,432.6491 288.6463,433.4301 M285.6543,449.4771 C285.7563,450.1571 285.7563,451.3131 285.6543,451.9921 C282.3233,452.1621 264.8143,452.1621 261.6863,451.9921 C261.5163,449.4091 261.5843,444.1391 261.6863,442.1001 C262.3673,441.9971 263.7943,441.9971 264.5083,442.1001 C264.5763,444.0711 264.5763,447.7431 264.5083,449.4771 C268.7573,449.4431 282.3903,449.4091 285.6543,449.4771 M260.5983,425.2371 C260.4973,424.4891 260.4973,423.4361 260.5983,422.7211 C263.5903,422.5851 273.4493,422.5511 276.9513,422.7211 C277.1553,425.7131 277.1553,431.0841 276.9853,433.7371 C276.3053,433.8721 274.8773,433.8721 274.1973,433.7371 C274.1973,431.6281 274.2313,426.9031 274.1973,425.2031 C272.0553,425.2711 263.5563,425.2711 260.5983,425.2371 M258.9663,439.2091 C258.8313,438.4281 258.8313,437.4421 258.9663,436.6941 C260.3613,436.6601 263.2503,436.6251 266.4803,436.6251 C266.4123,434.3151 266.4463,431.5261 266.5143,429.8951 C267.1943,429.7581 268.6223,429.7581 269.4043,429.8951 C269.4713,431.5941 269.4383,434.3481 269.4043,436.6251 C273.8573,436.6251 278.2773,436.6251 279.9763,436.6941 C280.0793,437.5431 280.0793,438.4281 279.9763,439.2091 C276.9853,439.3121 263.3863,439.3121 258.9663,439.2091" id="Fill-46" fill="#FFFFFF"></path>
            </g>
        </g>
    </g>
</svg>