<?xml version="1.0" encoding="UTF-8"?>
<svg width="400px" height="400px" viewBox="0 0 400 400" version="1.1" xmlns="http://www.w3.org/2000/svg" xmlns:xlink="http://www.w3.org/1999/xlink">
    <!-- Generator: Sketch 55.2 (78181) - https://sketchapp.com -->
    <title>snow1</title>
    <desc>Created with Sketch.</desc>
    <g id="Page-1" stroke="none" stroke-width="1" fill="none" fill-rule="evenodd">
        <g id="snow1" fill="#FFFFFF">
            <path d="M265.351351,117.351351 L259.565838,117.351351 L264.080432,112.837189 C264.333405,112.583784 264.333405,112.172973 264.080432,111.919568 C263.827027,111.666595 263.416216,111.666595 263.162811,111.919568 L258.648649,116.434162 L258.648649,110.648649 C258.648649,110.290595 258.358054,110 258,110 C257.641514,110 257.351351,110.290595 257.351351,110.648649 L257.351351,116.434162 L252.837189,111.919568 C252.583784,111.666595 252.172973,111.666595 251.919568,111.919568 C251.666595,112.172973 251.666595,112.583784 251.919568,112.837189 L256.434162,117.351351 L250.648649,117.351351 C250.290162,117.351351 250,117.641946 250,118 C250,118.358054 250.290162,118.648649 250.648649,118.648649 L256.434162,118.648649 L251.919568,123.162811 C251.666595,123.416216 251.666595,123.827027 251.919568,124.080432 C252.04627,124.207135 252.212324,124.27027 252.378378,124.27027 C252.544432,124.27027 252.710486,124.207135 252.837189,124.080432 L257.351351,119.565838 L257.351351,125.351351 C257.351351,125.709405 257.641514,126 258,126 C258.358054,126 258.648649,125.709405 258.648649,125.351351 L258.648649,119.565838 L263.162811,124.080432 C263.289514,124.207135 263.455568,124.27027 263.621622,124.27027 C263.787676,124.27027 263.95373,124.207135 264.080432,124.080432 C264.333405,123.827027 264.333405,123.416216 264.080432,123.162811 L259.565838,118.648649 L265.351351,118.648649 C265.709405,118.648649 266,118.358054 266,118 C266,117.641946 265.709405,117.351351 265.351351,117.351351" id="Fill-21" fill-opacity="0.5"></path>
            <path d="M116.351351,267.351351 L110.565838,267.351351 L115.080432,262.837189 C115.333405,262.583784 115.333405,262.172973 115.080432,261.919568 C114.827027,261.666595 114.416216,261.666595 114.162811,261.919568 L109.648649,266.434162 L109.648649,260.648649 C109.648649,260.290595 109.358054,260 109,260 C108.641514,260 108.351351,260.290595 108.351351,260.648649 L108.351351,266.434162 L103.837189,261.919568 C103.583784,261.666595 103.172973,261.666595 102.919568,261.919568 C102.666595,262.172973 102.666595,262.583784 102.919568,262.837189 L107.434162,267.351351 L101.648649,267.351351 C101.290162,267.351351 101,267.641946 101,268 C101,268.358054 101.290162,268.648649 101.648649,268.648649 L107.434162,268.648649 L102.919568,273.162811 C102.666595,273.416216 102.666595,273.827027 102.919568,274.080432 C103.04627,274.207135 103.212324,274.27027 103.378378,274.27027 C103.544432,274.27027 103.710486,274.207135 103.837189,274.080432 L108.351351,269.565838 L108.351351,275.351351 C108.351351,275.709405 108.641514,276 109,276 C109.358054,276 109.648649,275.709405 109.648649,275.351351 L109.648649,269.565838 L114.162811,274.080432 C114.289514,274.207135 114.455568,274.27027 114.621622,274.27027 C114.787676,274.27027 114.95373,274.207135 115.080432,274.080432 C115.333405,273.827027 115.333405,273.416216 115.080432,273.162811 L110.565838,268.648649 L116.351351,268.648649 C116.709405,268.648649 117,268.358054 117,268 C117,267.641946 116.709405,267.351351 116.351351,267.351351" id="Fill-21"></path>
        </g>
    </g>
</svg>