<?xml version="1.0" encoding="UTF-8"?>
<svg width="400px" height="400px" viewBox="0 0 400 400" version="1.1" xmlns="http://www.w3.org/2000/svg" xmlns:xlink="http://www.w3.org/1999/xlink">
    <!-- Generator: Sketch 55.2 (78181) - https://sketchapp.com -->
    <title>snow2</title>
    <desc>Created with Sketch.</desc>
    <g id="Page-1" stroke="none" stroke-width="1" fill="none" fill-rule="evenodd">
        <g id="Group-23-Copy-3" fill="#FFFFFF">
            <path d="M149.891892,234.891892 L131.088973,234.891892 L145.761405,220.220865 C146.583568,219.397297 146.583568,218.062162 145.761405,217.238595 C144.937838,216.416432 143.602703,216.416432 142.779135,217.238595 L128.108108,231.911027 L128.108108,213.108108 C128.108108,211.944432 127.163676,211 126,211 C124.834919,211 123.891892,211.944432 123.891892,213.108108 L123.891892,231.911027 L109.220865,217.238595 C108.397297,216.416432 107.062162,216.416432 106.238595,217.238595 C105.416432,218.062162 105.416432,219.397297 106.238595,220.220865 L120.911027,234.891892 L102.108108,234.891892 C100.943027,234.891892 100,235.836324 100,237 C100,238.163676 100.943027,239.108108 102.108108,239.108108 L120.911027,239.108108 L106.238595,253.779135 C105.416432,254.602703 105.416432,255.937838 106.238595,256.761405 C106.650378,257.173189 107.190054,257.378378 107.72973,257.378378 C108.269405,257.378378 108.809081,257.173189 109.220865,256.761405 L123.891892,242.088973 L123.891892,260.891892 C123.891892,262.055568 124.834919,263 126,263 C127.163676,263 128.108108,262.055568 128.108108,260.891892 L128.108108,242.088973 L142.779135,256.761405 C143.190919,257.173189 143.730595,257.378378 144.27027,257.378378 C144.809946,257.378378 145.349622,257.173189 145.761405,256.761405 C146.583568,255.937838 146.583568,254.602703 145.761405,253.779135 L131.088973,239.108108 L149.891892,239.108108 C151.055568,239.108108 152,238.163676 152,237 C152,235.836324 151.055568,234.891892 149.891892,234.891892" id="Fill-21" fill-opacity="0.5"></path>
            <path d="M266,121 C266,127.626667 260.626667,133 254,133 C247.373333,133 242,127.626667 242,121 C242,114.373333 247.373333,109 254,109 C260.626667,109 266,114.373333 266,121" id="snow3" fill-opacity="0.3"></path>
        </g>
    </g>
</svg>